<svg width="17" height="17" viewBox="0 0 17 17" fill="none" xmlns="http://www.w3.org/2000/svg">
<path d="M4.52391 7.42236C4.77345 6.66739 5.25503 6.01052 5.89997 5.54545C6.54491 5.08037 7.32024 4.83086 8.11538 4.83249C9.01671 4.83249 9.83164 5.15249 10.4716 5.67622L12.334 3.81436C11.1991 2.82502 9.74471 2.21436 8.11538 2.21436C5.59271 2.21436 3.42098 3.65329 2.37671 5.76102L4.52391 7.42236Z" fill="#EA4335"/>
<path d="M10.2702 11.8211C9.68884 12.196 8.95071 12.396 8.11551 12.396C7.32355 12.3976 6.55114 12.1501 5.90764 11.6885C5.26413 11.2268 4.78215 10.5745 4.52991 9.82373L2.37524 11.4595C2.90391 12.5295 3.72205 13.4298 4.73675 14.0582C5.75145 14.6865 6.92202 15.0177 8.11551 15.0141C9.67978 15.0141 11.1742 14.4579 12.2936 13.4141L10.2707 11.8211H10.2702Z" fill="#34A853"/>
<path d="M12.2936 13.4144C13.4643 12.3221 14.2243 10.6966 14.2243 8.61442C14.2243 8.23575 14.1661 7.82882 14.0792 7.45068H8.11548V9.92375H11.548C11.3789 10.7552 10.924 11.399 10.2707 11.8214L12.2936 13.4144Z" fill="#4285F4"/>
<path d="M4.52979 9.82416C4.39932 9.43425 4.33303 9.02573 4.33353 8.61456C4.33353 8.1975 4.40019 7.79696 4.52393 7.42256L2.37673 5.76123C1.93746 6.648 1.71102 7.62497 1.71539 8.61456C1.71539 9.63856 1.95273 10.6039 2.37513 11.4599L4.52979 9.82416Z" fill="#FBBC05"/>
</svg>
