<svg width="16" height="17" viewBox="0 0 16 17" fill="none" xmlns="http://www.w3.org/2000/svg">
<path d="M13.1933 10.4534C11.8199 11.82 9.85327 12.24 8.1266 11.7L4.9866 14.8334C4.75993 15.0667 4.31327 15.2067 3.99327 15.16L2.53993 14.96C2.05993 14.8934 1.61327 14.44 1.53993 13.96L1.33993 12.5067C1.29327 12.1867 1.4466 11.74 1.6666 11.5134L4.79993 8.38005C4.2666 6.64671 4.67993 4.68005 6.05327 3.31338C8.01994 1.34671 11.2133 1.34671 13.1866 3.31338C15.1599 5.28005 15.1599 8.48671 13.1933 10.4534Z" stroke="#6C7278" stroke-width="1.5" stroke-miterlimit="10" stroke-linecap="round" stroke-linejoin="round"/>
<path d="M4.59326 12.1602L6.1266 13.6935" stroke="#6C7278" stroke-width="1.5" stroke-miterlimit="10" stroke-linecap="round" stroke-linejoin="round"/>
<path d="M9.66675 7.8335C10.219 7.8335 10.6667 7.38578 10.6667 6.8335C10.6667 6.28121 10.219 5.8335 9.66675 5.8335C9.11446 5.8335 8.66675 6.28121 8.66675 6.8335C8.66675 7.38578 9.11446 7.8335 9.66675 7.8335Z" stroke="#6C7278" stroke-width="1.5" stroke-linecap="round" stroke-linejoin="round"/>
</svg>
