<svg width="36" height="36" viewBox="0 0 36 36" fill="none" xmlns="http://www.w3.org/2000/svg">
<path d="M0 18C0 8.05888 8.05888 0 18 0C27.9411 0 36 8.05888 36 18C36 27.9411 27.9411 36 18 36C8.05888 36 0 27.9411 0 18Z" fill="#33008F"/>
<g clip-path="url(#clip0_254_4256)">
<path d="M19.5334 30.1112L7.6638 17.6246C4.30234 14.0885 5.1789 9.05265 9.62139 6.37646L21.491 18.863C24.8525 22.3991 23.9759 27.435 19.5334 30.1112Z" fill="#FFF1F1"/>
<path d="M21.448 17.675L23.4688 19.3075L28.179 15.5985C31.0321 13.352 31.1234 9.7355 28.3829 7.52115L26.3621 5.88867L21.652 9.59764C18.7989 11.8442 18.7075 15.4607 21.448 17.675Z" fill="#FFF1F1"/>
</g>
<defs>
<clipPath id="clip0_254_4256">
<rect width="24.76" height="24.2223" fill="white" transform="translate(5.62012 5.88867)"/>
</clipPath>
</defs>
</svg>
